# xmcd
#
# Track frame offsets:
#	150
#	14861
#	29492
#	45202
#	59771
#	75634
#	91635
#	107669
#	123303
#	140645
#	157210
#	172558
#	186287
#	201996
#	215553
#	231260
#
# Disc length: 3411 seconds
#
# Revision: 0
# Processed by: cddbd v1.5.2PL0 Copyright (c) Steve Scherf et al.
# Submitted via: audiograbber 1.83.01
#
DISCID=df0d5110
DTITLE=Linda Feller - Mitten ins Herz CD2
DYEAR=2015
DGENRE=Country
TTITLE0=Darling
TTITLE1=Wir waren noch Kinder
TTITLE2=Pro Woche zweimal Sonntag
TTITLE3=So gut wie Du kennt mich kein andrer
TTITLE4=Liebe ist wie ein Haus
TTITLE5=Engel lieben meist die Falschen
TTITLE6=Mitten ins Herz
TTITLE7=Jeder Tag kann ein Anfang sein
TTITLE8=Langsam aber sicher (jetzt noch nicht)
TTITLE9=Jenseits des Horizonts
TTITLE10=Pustekuchen
TTITLE11=Leben ist für mich Rock 'n' Roll
TTITLE12=Tränen verraten Dich
TTITLE13=Wenn Worte zerstören
TTITLE14=Die Frau die ich sein will
TTITLE15=Hit-Medley
EXTD=Electrola 06025 4749226
EXTT0=
EXTT1=
EXTT2=
EXTT3=
EXTT4=
EXTT5=
EXTT6=
EXTT7=
EXTT8=
EXTT9=
EXTT10=
EXTT11=
EXTT12=
EXTT13=
EXTT14=
EXTT15=
PLAYORDER=
